<?xml version="1.0" standalone="no"?>
<!DOCTYPE svg PUBLIC "-//W3C//DTD SVG 20010904//EN"
 "http://www.w3.org/TR/2001/REC-SVG-20010904/DTD/svg10.dtd">
<svg version="1.0" xmlns="http://www.w3.org/2000/svg"
 width="373.000000pt" height="373.000000pt" viewBox="0 0 373.000000 373.000000"
 preserveAspectRatio="xMidYMid meet">
<metadata>
Created by potrace 1.14, written by Peter Selinger 2001-2017
</metadata>
<g transform="translate(0.000000,373.000000) scale(0.100000,-0.100000)"
fill="#000000" stroke="none">
<path d="M1478 2973 c-3 -8 -108 -43 -135 -45 -7 -1 -13 -5 -13 -10 0 -5 -4
-7 -9 -3 -5 3 -12 1 -16 -5 -4 -6 -11 -8 -16 -5 -5 4 -9 1 -9 -5 0 -7 -7 -10
-15 -6 -8 3 -15 1 -15 -3 0 -5 -21 -21 -46 -36 -25 -15 -61 -41 -79 -60 -19
-18 -37 -30 -40 -27 -3 3 -5 -3 -5 -13 0 -10 -3 -15 -6 -12 -4 4 -23 -15 -42
-41 -20 -26 -40 -49 -44 -50 -5 -2 -6 -8 -2 -13 3 -5 1 -9 -4 -9 -5 0 -15 -14
-22 -31 -7 -17 -18 -36 -24 -42 -6 -7 -22 -36 -36 -66 -14 -30 -29 -59 -35
-65 -14 -15 -49 -89 -47 -98 1 -5 -1 -8 -6 -8 -4 0 -13 -15 -21 -32 -8 -18
-18 -36 -23 -39 -5 -3 -10 -13 -12 -21 -1 -8 -10 -28 -21 -44 -11 -16 -20 -31
-21 -34 -13 -42 -18 -50 -25 -50 -5 0 -9 -7 -9 -15 0 -8 -9 -24 -20 -35 -11
-11 -20 -22 -19 -25 2 -8 -24 -69 -31 -75 -7 -5 -53 -90 -116 -210 -19 -36
-58 -110 -88 -165 -30 -55 -52 -104 -49 -109 4 -5 2 -6 -4 -3 -9 6 -59 -80
-55 -95 1 -5 -2 -8 -8 -8 -5 0 -10 -7 -10 -15 0 -8 -5 -15 -10 -15 -6 0 -9 -3
-8 -7 3 -11 -40 -93 -60 -115 -8 -10 -12 -18 -9 -18 3 0 -16 -38 -43 -85 -27
-47 -47 -85 -44 -85 3 0 -3 -12 -14 -27 -30 -43 -61 -112 -52 -118 4 -2 6 -16
5 -30 -2 -14 1 -25 6 -25 6 0 8 -4 5 -8 -3 -5 8 -22 25 -38 l30 -29 1087 0
c623 0 1096 4 1107 9 11 5 31 10 45 10 14 1 35 8 48 14 12 7 22 10 22 6 0 -3
6 -1 13 5 8 6 39 24 70 39 31 16 54 32 50 35 -3 4 1 7 11 7 20 0 156 135 156
155 0 8 4 15 9 15 10 0 91 131 91 148 0 7 5 12 10 12 6 0 10 7 10 15 0 8 5 15
11 15 5 0 7 5 4 10 -3 6 0 13 8 16 7 2 14 10 14 17 0 7 29 64 64 127 35 63 63
118 61 123 -1 4 3 7 9 7 5 0 8 4 5 9 -4 5 -2 11 2 13 4 1 30 44 56 93 27 50
56 104 65 120 9 17 18 32 21 35 3 3 25 44 50 93 24 48 48 87 53 87 4 0 5 5 2
10 -3 6 -2 10 4 10 5 0 12 13 16 30 4 17 10 30 14 30 9 0 64 109 64 126 0 7 3
11 7 9 4 -2 18 19 31 48 13 29 27 54 30 57 7 5 42 71 45 83 1 4 3 10 4 15 1 4
2 11 1 15 -1 5 2 6 7 3 7 -4 55 76 56 96 1 4 8 15 16 25 8 10 32 52 53 93 48
93 60 113 70 121 5 3 9 10 9 15 0 5 4 19 9 32 22 59 -6 128 -66 163 -28 16
-97 18 -1052 18 -750 1 -1023 -2 -1023 -10 0 -8 -4 -8 -13 -1 -8 7 -18 7 -27
2 -9 -5 -19 -5 -26 1 -7 5 -14 6 -16 2z"/>
</g>
</svg>
